{
    "asset" : {
        "generator" : "Khronos glTF Blender I/O v1.7.33",
        "version" : "2.0"
    },
    "scene" : 0,
    "scenes" : [
        {
            "name" : "Scene",
            "nodes" : [
                0,
                1,
                2,
                3,
                4
            ]
        }
    ],
    "nodes" : [
        {
            "mesh" : 0,
            "name" : "Cylinder.001_Cylinder.003",
            "rotation" : [
                0.7071068286895752,
                0,
                0,
                0.7071067094802856
            ],
            "scale" : [
                0.1809219866991043,
                0.1809219866991043,
                0.1809219866991043
            ]
        },
        {
            "mesh" : 1,
            "name" : "Cylinder.002",
            "rotation" : [
                0.7071068286895752,
                0,
                0,
                0.7071067094802856
            ],
            "scale" : [
                0.1809219866991043,
                0.1809219866991043,
                0.1809219866991043
            ]
        },
        {
            "mesh" : 2,
            "name" : "Cylinder",
            "rotation" : [
                0.7071068286895752,
                0,
                0,
                0.7071067094802856
            ],
            "scale" : [
                0.1809219866991043,
                0.1809219866991043,
                0.1809219866991043
            ]
        },
        {
            "mesh" : 3,
            "name" : "Sphere.002",
            "rotation" : [
                0.7071068286895752,
                0,
                0,
                0.7071067094802856
            ],
            "scale" : [
                0.1809219866991043,
                0.1809219866991043,
                0.1809219866991043
            ]
        },
        {
            "mesh" : 4,
            "name" : "Sphere.001",
            "rotation" : [
                0.7071068286895752,
                0,
                0,
                0.7071067094802856
            ],
            "scale" : [
                0.1809219866991043,
                0.1809219866991043,
                0.1809219866991043
            ]
        }
    ],
    "materials" : [
        {
            "doubleSided" : true,
            "name" : "Material.003",
            "pbrMetallicRoughness" : {
                "baseColorFactor" : [
                    0.800000011920929,
                    0.800000011920929,
                    0.800000011920929,
                    1
                ],
                "metallicFactor" : 0,
                "roughnessFactor" : 0.5
            }
        },
        {
            "doubleSided" : true,
            "name" : "Material.002",
            "pbrMetallicRoughness" : {
                "baseColorFactor" : [
                    0.7991031408309937,
                    0.14126327633857727,
                    0.13843166828155518,
                    1
                ],
                "metallicFactor" : 0,
                "roughnessFactor" : 0.5
            }
        },
        {
            "doubleSided" : true,
            "name" : "Material.002_lung.jpg",
            "pbrMetallicRoughness" : {
                "baseColorFactor" : [
                    0.7991031408309937,
                    0.14126327633857727,
                    0.13843166828155518,
                    1
                ],
                "metallicFactor" : 0,
                "roughnessFactor" : 0.5
            }
        }
    ],
    "meshes" : [
        {
            "name" : "Cylinder.001_Cylinder.003",
            "primitives" : [
                {
                    "attributes" : {
                        "POSITION" : 0,
                        "NORMAL" : 1,
                        "TEXCOORD_0" : 2
                    },
                    "indices" : 3,
                    "material" : 0
                }
            ]
        },
        {
            "name" : "Cylinder.002",
            "primitives" : [
                {
                    "attributes" : {
                        "POSITION" : 4,
                        "NORMAL" : 5,
                        "TEXCOORD_0" : 6
                    },
                    "indices" : 7,
                    "material" : 0
                }
            ]
        },
        {
            "name" : "Cylinder",
            "primitives" : [
                {
                    "attributes" : {
                        "POSITION" : 8,
                        "NORMAL" : 9,
                        "TEXCOORD_0" : 10
                    },
                    "indices" : 11,
                    "material" : 0
                }
            ]
        },
        {
            "name" : "Sphere.002",
            "primitives" : [
                {
                    "attributes" : {
                        "POSITION" : 12,
                        "NORMAL" : 13,
                        "TEXCOORD_0" : 14
                    },
                    "indices" : 15,
                    "material" : 1
                }
            ]
        },
        {
            "name" : "Sphere.001",
            "primitives" : [
                {
                    "attributes" : {
                        "POSITION" : 16,
                        "NORMAL" : 17,
                        "TEXCOORD_0" : 18
                    },
                    "indices" : 19,
                    "material" : 2
                }
            ]
        }
    ],
    "accessors" : [
        {
            "bufferView" : 0,
            "componentType" : 5126,
            "count" : 72,
            "max" : [
                0.6570320129394531,
                0.2590450048446655,
                -4.208395004272461
            ],
            "min" : [
                -0.004985999781638384,
                -0.2570419907569885,
                -4.716804027557373
            ],
            "type" : "VEC3"
        },
        {
            "bufferView" : 1,
            "componentType" : 5126,
            "count" : 72,
            "type" : "VEC3"
        },
        {
            "bufferView" : 2,
            "componentType" : 5126,
            "count" : 72,
            "type" : "VEC2"
        },
        {
            "bufferView" : 3,
            "componentType" : 5123,
            "count" : 180,
            "type" : "SCALAR"
        },
        {
            "bufferView" : 4,
            "componentType" : 5126,
            "count" : 72,
            "max" : [
                -0.030709000304341316,
                0.1912350058555603,
                -4.226920127868652
            ],
            "min" : [
                -0.7285450100898743,
                -0.1892320066690445,
                -4.726836204528809
            ],
            "type" : "VEC3"
        },
        {
            "bufferView" : 5,
            "componentType" : 5126,
            "count" : 72,
            "type" : "VEC3"
        },
        {
            "bufferView" : 6,
            "componentType" : 5126,
            "count" : 72,
            "type" : "VEC2"
        },
        {
            "bufferView" : 7,
            "componentType" : 5123,
            "count" : 180,
            "type" : "SCALAR"
        },
        {
            "bufferView" : 8,
            "componentType" : 5126,
            "count" : 7369,
            "max" : [
                0.29709601402282715,
                0.2979229986667633,
                -3.9585540294647217
            ],
            "min" : [
                -0.29874899983406067,
                -0.2979219853878021,
                -7.081009864807129
            ],
            "type" : "VEC3"
        },
        {
            "bufferView" : 9,
            "componentType" : 5126,
            "count" : 7369,
            "type" : "VEC3"
        },
        {
            "bufferView" : 10,
            "componentType" : 5126,
            "count" : 7369,
            "type" : "VEC2"
        },
        {
            "bufferView" : 11,
            "componentType" : 5123,
            "count" : 36096,
            "type" : "SCALAR"
        },
        {
            "bufferView" : 12,
            "componentType" : 5126,
            "count" : 3074,
            "max" : [
                4.0318827629089355,
                1.0716450214385986,
                0.18647800385951996
            ],
            "min" : [
                0.23156200349330902,
                -1.8551390171051025,
                -6.756557941436768
            ],
            "type" : "VEC3"
        },
        {
            "bufferView" : 13,
            "componentType" : 5126,
            "count" : 3074,
            "type" : "VEC3"
        },
        {
            "bufferView" : 14,
            "componentType" : 5126,
            "count" : 3074,
            "type" : "VEC2"
        },
        {
            "bufferView" : 15,
            "componentType" : 5123,
            "count" : 16128,
            "type" : "SCALAR"
        },
        {
            "bufferView" : 16,
            "componentType" : 5126,
            "count" : 3074,
            "max" : [
                -0.34216099977493286,
                0.9696030020713806,
                -0.10384699702262878
            ],
            "min" : [
                -3.7929248809814453,
                -1.6845020055770874,
                -6.412055969238281
            ],
            "type" : "VEC3"
        },
        {
            "bufferView" : 17,
            "componentType" : 5126,
            "count" : 3074,
            "type" : "VEC3"
        },
        {
            "bufferView" : 18,
            "componentType" : 5126,
            "count" : 3074,
            "type" : "VEC2"
        },
        {
            "bufferView" : 19,
            "componentType" : 5123,
            "count" : 16128,
            "type" : "SCALAR"
        }
    ],
    "bufferViews" : [
        {
            "buffer" : 0,
            "byteLength" : 864,
            "byteOffset" : 0
        },
        {
            "buffer" : 0,
            "byteLength" : 864,
            "byteOffset" : 864
        },
        {
            "buffer" : 0,
            "byteLength" : 576,
            "byteOffset" : 1728
        },
        {
            "buffer" : 0,
            "byteLength" : 360,
            "byteOffset" : 2304
        },
        {
            "buffer" : 0,
            "byteLength" : 864,
            "byteOffset" : 2664
        },
        {
            "buffer" : 0,
            "byteLength" : 864,
            "byteOffset" : 3528
        },
        {
            "buffer" : 0,
            "byteLength" : 576,
            "byteOffset" : 4392
        },
        {
            "buffer" : 0,
            "byteLength" : 360,
            "byteOffset" : 4968
        },
        {
            "buffer" : 0,
            "byteLength" : 88428,
            "byteOffset" : 5328
        },
        {
            "buffer" : 0,
            "byteLength" : 88428,
            "byteOffset" : 93756
        },
        {
            "buffer" : 0,
            "byteLength" : 58952,
            "byteOffset" : 182184
        },
        {
            "buffer" : 0,
            "byteLength" : 72192,
            "byteOffset" : 241136
        },
        {
            "buffer" : 0,
            "byteLength" : 36888,
            "byteOffset" : 313328
        },
        {
            "buffer" : 0,
            "byteLength" : 36888,
            "byteOffset" : 350216
        },
        {
            "buffer" : 0,
            "byteLength" : 24592,
            "byteOffset" : 387104
        },
        {
            "buffer" : 0,
            "byteLength" : 32256,
            "byteOffset" : 411696
        },
        {
            "buffer" : 0,
            "byteLength" : 36888,
            "byteOffset" : 443952
        },
        {
            "buffer" : 0,
            "byteLength" : 36888,
            "byteOffset" : 480840
        },
        {
            "buffer" : 0,
            "byteLength" : 24592,
            "byteOffset" : 517728
        },
        {
            "buffer" : 0,
            "byteLength" : 32256,
            "byteOffset" : 542320
        }
    ],
    "buffers" : [
        {
            "byteLength" : 574576,
            "uri" : "data:application/octet-stream;base64,"
        }
    ]
}
